<svg width="65" height="64" viewBox="0 0 65 64" fill="none" xmlns="http://www.w3.org/2000/svg">
<path d="M7.25211 3.14754C7.25211 4.88588 5.84291 6.29508 4.10457 6.29508C2.36623 6.29508 0.957031 4.88588 0.957031 3.14754C0.957031 1.4092 2.36623 0 4.10457 0C5.84291 0 7.25211 1.4092 7.25211 3.14754Z" fill="black"/>
<path d="M26.1374 3.14754C26.1374 4.88588 24.7282 6.29508 22.9898 6.29508C21.2515 6.29508 19.8423 4.88588 19.8423 3.14754C19.8423 1.4092 21.2515 0 22.9898 0C24.7282 0 26.1374 1.4092 26.1374 3.14754Z" fill="black"/>
<path d="M45.0226 3.14754C45.0226 4.88588 43.6134 6.29508 41.8751 6.29508C40.1367 6.29508 38.7275 4.88588 38.7275 3.14754C38.7275 1.4092 40.1367 0 41.8751 0C43.6134 0 45.0226 1.4092 45.0226 3.14754Z" fill="black"/>
<path d="M64.957 22.0328C64.957 24.3506 63.0781 26.2295 60.7603 26.2295C58.4425 26.2295 56.5636 24.3506 56.5636 22.0328C56.5636 19.715 58.4425 17.8361 60.7603 17.8361C63.0781 17.8361 64.957 19.715 64.957 22.0328Z" fill="black"/>
<path d="M64.957 59.8033C64.957 62.1211 63.0781 64 60.7603 64C58.4425 64 56.5636 62.1211 56.5636 59.8033C56.5636 57.4855 58.4425 55.6066 60.7603 55.6066C63.0781 55.6066 64.957 57.4855 64.957 59.8033Z" fill="black"/>
<path d="M64.957 40.918C64.957 43.2358 63.0781 45.1148 60.7603 45.1148C58.4425 45.1148 56.5636 43.2358 56.5636 40.918C56.5636 38.6002 58.4425 36.7213 60.7603 36.7213C63.0781 36.7213 64.957 38.6002 64.957 40.918Z" fill="black"/>
<path d="M46.0718 59.8033C46.0718 62.1211 44.1928 64 41.8751 64C39.5573 64 37.6783 62.1211 37.6783 59.8033C37.6783 57.4855 39.5573 55.6066 41.8751 55.6066C44.1928 55.6066 46.0718 57.4855 46.0718 59.8033Z" fill="black"/>
<path d="M27.1865 59.8033C27.1865 62.1211 25.3076 64 22.9898 64C20.672 64 18.7931 62.1211 18.7931 59.8033C18.7931 57.4855 20.672 55.6066 22.9898 55.6066C25.3076 55.6066 27.1865 57.4855 27.1865 59.8033Z" fill="black"/>
<path d="M7.25211 22.0328C7.25211 23.7711 5.84291 25.1803 4.10457 25.1803C2.36623 25.1803 0.957031 23.7711 0.957031 22.0328C0.957031 20.2944 2.36623 18.8852 4.10457 18.8852C5.84291 18.8852 7.25211 20.2944 7.25211 22.0328Z" fill="black"/>
<path d="M27.1865 22.0328C27.1865 24.3506 25.3076 26.2295 22.9898 26.2295C20.672 26.2295 18.7931 24.3506 18.7931 22.0328C18.7931 19.715 20.672 17.8361 22.9898 17.8361C25.3076 17.8361 27.1865 19.715 27.1865 22.0328Z" fill="black"/>
<path d="M46.0718 22.0328C46.0718 24.3506 44.1928 26.2295 41.8751 26.2295C39.5573 26.2295 37.6783 24.3506 37.6783 22.0328C37.6783 19.715 39.5573 17.8361 41.8751 17.8361C44.1928 17.8361 46.0718 19.715 46.0718 22.0328Z" fill="black"/>
<path d="M7.25211 40.918C7.25211 42.6564 5.84291 44.0656 4.10457 44.0656C2.36623 44.0656 0.957031 42.6564 0.957031 40.918C0.957031 39.1797 2.36623 37.7705 4.10457 37.7705C5.84291 37.7705 7.25211 39.1797 7.25211 40.918Z" fill="black"/>
<path d="M27.1865 40.918C27.1865 43.2358 25.3076 45.1148 22.9898 45.1148C20.672 45.1148 18.7931 43.2358 18.7931 40.918C18.7931 38.6002 20.672 36.7213 22.9898 36.7213C25.3076 36.7213 27.1865 38.6002 27.1865 40.918Z" fill="black"/>
<path d="M46.0718 40.918C46.0718 43.2358 44.1928 45.1148 41.8751 45.1148C39.5573 45.1148 37.6783 43.2358 37.6783 40.918C37.6783 38.6002 39.5573 36.7213 41.8751 36.7213C44.1928 36.7213 46.0718 38.6002 46.0718 40.918Z" fill="black"/>
</svg>
